<svg xmlns:dc="http://purl.org/dc/elements/1.1/" xmlns:cc="http://creativecommons.org/ns#" xmlns:rdf="http://www.w3.org/1999/02/22-rdf-syntax-ns#" xmlns:svg="http://www.w3.org/2000/svg" xmlns="http://www.w3.org/2000/svg" version="1.1" width="74" height="78" id="svg3039"><metadata id="metadata3045"><rdf:RDF><cc:Work rdf:about=""><dc:format>image/svg+xml</dc:format><dc:type rdf:resource="http://purl.org/dc/dcmitype/StillImage"/><dc:title/></cc:Work></rdf:RDF></metadata><g id="layer1" style="display:inline"><path d="m 36 0 c -0.6 0 -2.2 3.4 -3.5 7.6 -1.3 4.2 -3 7.8 -3.7 8.1 -0.7 0.3 -4.2 -1.6 -7.7 -4.1 -5.8 -4.1 -8.6 -5.5 -8.6 -4.2 0 0.2 1.1 4.1 2.6 8.6 1.4 4.5 2.4 8.3 2.1 8.6 -0.2 0.2 -4.3 0.7 -9.1 1.1 -4.7 0.3 -8.6 1 -8.6 1.5 0 0.5 2.9 3 6.5 5.5 3.6 2.6 6.5 5.2 6.5 5.8 0 0.6 -2.9 3.2 -6.5 5.8 -3.6 2.6 -6.5 5.1 -6.5 5.5 0 0.5 3.9 1.1 8.6 1.5 4.7 0.3 8.8 0.8 9.1 1.1 0.2 0.2 -0.7 4.1 -2.1 8.6 -1.4 4.5 -2.6 8.3 -2.6 8.6 0 1.3 2.8 -0 8.6 -4.2 3.5 -2.5 7 -4.4 7.7 -4.1 0.7 0.3 2.3 3.9 3.7 8.1 1.3 4.2 2.9 7.6 3.5 7.6 0.6 0 2.2 -3.4 3.5 -7.6 1.3 -4.2 3 -7.8 3.7 -8.1 0.7 -0.3 4.2 1.6 7.7 4.1 5.8 4.1 8.6 5.5 8.6 4.2 0 -0.2 -1.1 -4.1 -2.6 -8.6 -1.4 -4.5 -2.4 -8.3 -2.1 -8.6 0.2 -0.2 4.3 -0.7 9.1 -1.1 4.7 -0.3 8.6 -1 8.6 -1.5 0 -0.5 -2.9 -3 -6.5 -5.5 -3.6 -2.6 -6.5 -5.2 -6.5 -5.8 0 -0.6 2.9 -3.2 6.5 -5.8 3.6 -2.6 6.5 -5.1 6.5 -5.5 0 -0.5 -3.9 -1.1 -8.6 -1.5 -4.7 -0.3 -8.8 -0.8 -9.1 -1.1 -0.2 -0.2 0.7 -4.1 2.1 -8.6 1.4 -4.5 2.6 -8.3 2.6 -8.6 0 -1.3 -2.8 0 -8.6 4.2 -3.5 2.5 -7 4.4 -7.7 4.1 -0.7 -0.3 -2.3 -3.9 -3.7 -8.1 -1.3 -4.2 -2.9 -7.6 -3.5 -7.6 z" id="path3051" style="fill:#eec619;fill-opacity:1"/></g></svg>